<svg width="512" height="512" viewBox="0 0 512 512" fill="none" xmlns="http://www.w3.org/2000/svg">
<g clip-path="url(#clip0_218_2)">
<circle cx="256" cy="256" r="256" fill="#111111"/>
<g clip-path="url(#clip1_218_2)">
<path d="M0 255.999C0 114.616 114.616 0 255.999 0C397.383 0 511.999 114.616 512.001 255.999C512.001 397.383 397.385 511.999 255.999 512.001C114.616 512.001 0 397.385 0 255.999ZM255.999 492.994C386.886 492.994 492.994 386.889 492.994 255.999C492.994 125.112 386.889 19.0049 255.999 19.0073C125.112 19.0073 19.0049 125.112 19.0073 255.999C19.0073 386.886 125.112 492.994 255.999 492.994Z" fill="#398378"/>
<g clip-path="url(#clip2_218_2)">
<path d="M214.171 133.348L129.031 182.501V220.63L214.171 171.475L299.308 220.63V182.501L214.171 133.348Z" fill="#398378"/>
<path d="M297.832 378.973L212.692 329.82V291.697L297.832 340.849L382.969 291.697V329.82L297.832 378.973Z" fill="#398378"/>
<path d="M129.031 230.87L214.171 181.714L247.186 200.778L162.049 249.933V348.245L129.031 329.181V230.87Z" fill="#398378"/>
<path d="M341.197 158.077L256.057 108.925L223.039 127.988L308.176 177.14V275.452L341.197 256.388V158.077Z" fill="#398378"/>
<path d="M171.096 353.916L171.099 255.608L204.117 236.545V334.856L289.254 384.009L256.236 403.075L171.096 353.916Z" fill="#398378"/>
<path d="M382.969 281.454V183.142L349.951 164.079V262.387L264.814 311.546L297.832 330.613L382.969 281.454Z" fill="#398378"/>
</g>
</g>
</g>
<defs>
<clipPath id="clip0_218_2">
<rect width="512" height="512" fill="white"/>
</clipPath>
<clipPath id="clip1_218_2">
<rect width="512" height="512" fill="white"/>
</clipPath>
<clipPath id="clip2_218_2">
<rect width="253.939" height="294.151" fill="white" transform="translate(129.031 108.925)"/>
</clipPath>
</defs>
</svg>
