<svg xmlns="http://www.w3.org/2000/svg" version="1.1" width="1000" height="330" viewBox="0 0 1000 330">
  <g transform="matrix(1,0,0,1,-0.605769792288811,-0.43523354006094905)">
    <svg viewBox="0 0 396 131" data-background-color="#ffffff" preserveAspectRatio="xMidYMid meet" height="330" width="1000" xmlns="http://www.w3.org/2000/svg">
      <g id="tight-bounds" transform="matrix(1,0,0,1,0.23988483774635938,0.1727745265090448)">
        <svg viewBox="0 0 395.5199999999999 130.65422062247467" height="130.65422062247467" width="395.5199999999999">
          <g>
            <svg viewBox="0 0 653.2532702971921 215.79261958880062" height="130.65422062247467" width="395.5199999999999">
              <g transform="matrix(1,0,0,1,0,63.48195731003992)">
                <svg viewBox="0 0 395.52 88.82870496872079" height="88.82870496872079" width="395.52">
                  <g id="textblocktransform">
                    <svg viewBox="0 0 395.52 88.82870496872079" height="88.82870496872079" width="395.52" id="textblock">
                      <g>
                        <svg viewBox="0 0 395.52 88.82870496872079" height="88.82870496872079" width="395.52">
                          <g transform="matrix(1,0,0,1,0,0)">
                            <svg width="395.52" viewBox="4 -41.150001525878906 206.74180603027344 46.85000228881836" height="88.82870496872079" data-palette-color="#8abe53">
                              <g class="undefined-text-0" data-fill-palette-color="primary" id="text-0">
                                <path
                                  d="M14.85-5L21.65-5Q23.5-5 24.25-6.05 25-7.1 25-8.4L25-8.4 25-31.3Q25-32.55 24.25-33.6 23.5-34.65 21.65-34.65L21.65-34.65 9.95-34.65 9.9-2.05Q9.9-0.95 9.05-0.3 8.2 0.35 6.95 0.35L6.95 0.35Q4 0.35 4-2.05L4-2.05 4-36.7Q4-38.5 4.93-39.1 5.85-39.7 7.15-39.7L7.15-39.7 22.9-39.7Q24.2-39.7 25.6-39.15 27-38.6 28.3-37.75L28.3-37.75 28.25-37.75Q29.55-36.8 30.25-35.27 30.95-33.75 30.95-31.75L30.95-31.75 30.95-8Q30.95-3.95 28.25-1.95L28.25-1.95Q26.95-1 25.58-0.48 24.2 0.05 22.9 0.05L22.9 0.05 14.5 0.05Q13.65 0.05 13.18-0.65 12.7-1.35 12.7-2.5L12.7-2.5Q12.7-5 14.85-5L14.85-5ZM47.8-22.85L57.45-22.85Q58.75-22.85 60.15-22.3 61.55-21.75 62.85-20.85L62.85-20.85 62.8-20.85Q64.1-19.95 64.8-18.4 65.5-16.85 65.5-14.85L65.5-14.85 65.5-8Q65.5-3.95 62.8-1.95L62.8-1.95Q61.5-1 60.12-0.48 58.75 0.05 57.45 0.05L57.45 0.05 46.55 0.05Q45.25 0.05 43.87-0.48 42.5-1 41.2-1.95L41.2-1.95Q38.5-3.95 38.5-8L38.5-8 38.5-11.3Q38.5-13.65 41.45-13.65L41.45-13.65Q44.45-13.65 44.45-11.3L44.45-11.3 44.45-8.4Q44.45-7.1 45.2-6.05 45.95-5 47.8-5L47.8-5 56.2-5Q58.05-5 58.8-6.05 59.55-7.1 59.55-8.4L59.55-8.4 59.55-14.45Q59.55-15.7 58.8-16.78 58.05-17.85 56.2-17.85L56.2-17.85 46.55-17.85Q43.95-17.85 41.2-19.75L41.2-19.75Q38.5-21.85 38.5-25.8L38.5-25.8 38.5-31.75Q38.5-33.75 39.2-35.27 39.9-36.8 41.2-37.75L41.2-37.75 41.15-37.75Q42.45-38.6 43.85-39.15 45.25-39.7 46.55-39.7L46.55-39.7 57.45-39.7Q58.75-39.7 60.15-39.15 61.55-38.6 62.85-37.75L62.85-37.75 62.8-37.75Q64.1-36.8 64.8-35.27 65.5-33.75 65.5-31.75L65.5-31.75 65.5-28.8Q65.5-26.45 62.5-26.45L62.5-26.45Q59.55-26.45 59.55-28.8L59.55-28.8 59.55-31.3Q59.55-32.55 58.8-33.6 58.05-34.65 56.2-34.65L56.2-34.65 47.8-34.65Q45.95-34.65 45.2-33.6 44.45-32.55 44.45-31.3L44.45-31.3 44.45-26.2Q44.45-24.9 45.2-23.88 45.95-22.85 47.8-22.85L47.8-22.85ZM97.5-1.2L86.5-34.8 75.55-1.2 75.55-1.25Q75.25-0.5 74.72-0.03 74.19 0.45 73.44 0.45L73.44 0.45Q73.05 0.45 72.67 0.38 72.3 0.3 71.89 0.2L71.89 0.2 71.94 0.2Q69.09-0.7 69.84-3L69.84-3 81.25-37.65Q81.5-38.45 82.12-39 82.75-39.55 83.59-39.65L83.59-39.65Q84.44-39.8 85.25-39.88 86.05-39.95 86.5-39.95L86.5-39.95Q86.94-39.95 87.75-39.88 88.55-39.8 89.39-39.7L89.39-39.7Q90.09-39.6 90.77-38.95 91.44-38.3 91.8-37.65L91.8-37.65Q94.59-29.05 97.47-20.33 100.34-11.6 103.15-3L103.15-3Q103.84-0.7 101.05 0.2L101.05 0.2Q100.64 0.3 100.32 0.38 100 0.45 99.59 0.45L99.59 0.45Q98.89 0.45 98.32-0.03 97.75-0.5 97.5-1.25L97.5-1.25 97.5-1.2ZM90.25-12L90.25-12Q90.25-10.4 89.12-9.28 88-8.15 86.39-8.15L86.39-8.15Q84.8-8.15 83.69-9.28 82.59-10.4 82.59-12L82.59-12Q82.59-13.6 83.69-14.73 84.8-15.85 86.39-15.85L86.39-15.85Q88-15.85 89.12-14.73 90.25-13.6 90.25-12Z"
                                  fill="#8abe53" data-fill-palette-color="primary"
                                />
                                <path
                                  d="M151.787-22.3L151.787-22.3Q151.787-18 150.187-14.4 148.587-10.8 145.437-8.05L145.437-8.05Q143.837-6.6 141.717-5.8 139.587-5 137.137-5L137.137-5Q135.387-5 133.967-5.68 132.537-6.35 131.487-7.95L131.487-7.95Q129.837-6.55 128.037-5.8 126.237-5.05 124.637-5.05L124.637-5.05Q120.587-5.05 118.467-7.28 116.337-9.5 116.237-14.2L116.237-14.2Q116.237-17.35 117.137-20.03 118.037-22.7 119.737-24.8L119.737-24.8Q122.137-27.85 125.837-28.8L125.837-28.8Q127.287-29.2 128.537-29.2L128.537-29.2Q129.387-29.2 130.467-28.9 131.537-28.6 132.337-28.25L132.337-28.25 132.137-28.3Q132.287-28.2 132.687-27.75 133.087-27.3 134.087-26.05L134.087-26.05 135.287-26.45Q135.237-26.75 135.237-27.1L135.237-27.1Q135.237-27.35 135.237-27.7L135.237-27.7Q135.237-28.05 135.337-28.3L135.337-28.3Q136.187-30.3 138.437-29.6L138.437-29.6Q139.587-29.3 140.057-28.75 140.537-28.2 140.437-27.5L140.437-27.5 136.837-12.6 136.887-12.65Q136.737-12.15 136.717-11.85 136.687-11.55 136.687-11.45L136.687-11.45Q136.687-10.85 137.017-10.4 137.337-9.95 138.437-10.1L138.437-10.1Q139.287-10.2 140.187-10.6 141.087-11 142.087-11.9L142.087-11.9Q144.187-13.95 145.217-16.68 146.237-19.4 146.237-22.4L146.237-22.4Q146.237-25.4 145.167-27.8 144.087-30.2 141.887-32.15L141.887-32.15Q137.437-36 130.487-36L130.487-36Q124.587-36 120.067-33.25 115.537-30.5 112.687-25.5L112.687-25.5Q111.787-23.6 111.187-21.03 110.587-18.45 110.587-16.1L110.587-16.1Q110.587-8.5 115.437-3.85L115.437-3.85Q120.287 0.85 128.637 0.85L128.637 0.85Q132.837 0.85 136.387-0.4 139.937-1.65 143.537-4.45L143.537-4.45Q143.987-4.85 144.587-4.85L144.587-4.85Q144.987-4.85 145.467-4.58 145.937-4.3 146.437-3.9L146.437-3.9Q147.037-3.15 147.037-2.35L147.037-2.35Q147.037-1.35 146.037-0.55L146.037-0.55 146.087-0.55Q141.737 2.65 137.517 4.17 133.287 5.7 128.737 5.7L128.737 5.7Q120.587 5.7 115.087 2.2L115.087 2.2Q112.337 0.45 110.317-1.78 108.287-4 107.037-6.7L107.037-6.7Q106.087-8.8 105.587-11.08 105.087-13.35 105.087-16.05L105.087-16.05Q105.087-20.35 106.387-24.28 107.687-28.2 110.237-31.5L110.237-31.5Q113.937-36.15 119.117-38.65 124.287-41.15 130.687-41.15L130.687-41.15Q133.987-41.15 137.017-40.4 140.037-39.65 142.587-38.2L142.587-38.2Q145.087-36.75 147.017-34.7 148.937-32.65 150.087-30.25L150.087-30.25Q150.837-28.55 151.317-26.53 151.787-24.5 151.787-22.3ZM125.787-9.7L125.787-9.7Q127.687-9.7 129.187-11.23 130.687-12.75 131.337-15.15L131.337-15.15 132.587-20.7Q132.387-21.55 132.117-22.23 131.837-22.9 131.387-23.45L131.387-23.45Q130.137-24.55 128.037-24.35L128.037-24.35Q125.887-24.05 124.387-21.55L124.387-21.55Q123.487-20.05 122.967-18.18 122.437-16.3 122.437-14.1L122.437-14.1Q122.437-12.1 123.237-10.9 124.037-9.7 125.787-9.7Z"
                                  fill="#9fa6b2" data-fill-palette-color="secondary"
                                />
                                <path
                                  d="M167.537 0.25L167.537 0.25Q166.537 0.25 165.417-0.08 164.287-0.4 163.787-1.3L163.787-1.3Q162.637-5.2 161.387-9.3 160.137-13.4 158.887-17.35L158.887-17.35Q157.487-22 155.887-27.03 154.287-32.05 152.887-36.65L152.887-36.65Q152.587-37.75 153.237-38.58 153.887-39.4 155.087-39.8L155.087-39.8Q155.837-40 156.387-40L156.387-40Q158.087-40 158.587-38.3L158.587-38.3 162.287-26.45Q162.787-24.65 163.467-22.5 164.137-20.35 164.837-18.1 165.537-15.85 166.237-13.63 166.937-11.4 167.537-9.5L167.537-9.5Q168.487-12.65 169.607-16.32 170.737-20 171.917-23.8 173.087-27.6 174.237-31.33 175.387-35.05 176.387-38.3L176.387-38.3Q176.937-40 178.537-40L178.537-40Q179.137-40 179.937-39.8L179.937-39.8Q182.687-39.05 182.087-36.65L182.087-36.65Q179.387-27.9 176.637-19 173.887-10.1 171.187-1.3L171.187-1.3Q170.787-0.3 169.717-0.03 168.637 0.25 167.537 0.25ZM200.187-34.65L200.187-2Q200.187 0.4 197.187 0.4L197.187 0.4Q194.237 0.4 194.237-2L194.237-2 194.237-34.65 185.487-34.65Q183.687-34.65 183.587-37.2L183.587-37.2Q183.587-39.7 185.487-39.7L185.487-39.7 208.937-39.7Q210.837-39.7 210.737-37.2L210.737-37.2Q210.737-34.65 208.937-34.65L208.937-34.65 200.187-34.65Z"
                                  fill="#398378" data-fill-palette-color="accent"
                                />
                              </g>
                            </svg>
                          </g>
                        </svg>
                      </g>
                    </svg>
                  </g>
                </svg>
              </g>
              <g transform="matrix(1,0,0,1,437.4606507083914,0)">
                <svg viewBox="0 0 215.79261958880062 215.79261958880062" height="215.79261958880062" width="215.79261958880062">
                  <g id="icon-0">
                    <svg viewBox="0 0 215.79261958880062 215.79261958880062" height="215.79261958880062" width="215.79261958880062">
                      <g>
                        <path
                          d="M0 107.896c0-59.589 48.307-107.896 107.896-107.896 59.589 0 107.896 48.307 107.897 107.896 0 59.589-48.307 107.896-107.897 107.897-59.589 0-107.896-48.307-107.896-107.897zM107.896 207.782c55.165 0 99.886-44.72 99.886-99.886 0-55.165-44.72-99.886-99.886-99.885-55.165 0-99.886 44.72-99.885 99.885 0 55.165 44.72 99.886 99.885 99.886z"
                          data-fill-palette-color="accent" fill="#398378" stroke="transparent"></path>
                      </g>
                      <g transform="matrix(1,0,0,1,54.38257871129632,45.90844612125434)">
                        <svg xmlns="http://www.w3.org/2000/svg" version="1.1" x="0" y="0" viewBox="9.63800048828125 3.246999979019165 80.7239990234375 93.50699615478516" enable-background="new 0 0 100 100" xml:space="preserve" height="123.97572734629193" width="107.02746216620798" class="icon-s-0" data-fill-palette-color="accent" id="s-0" >
                          <g fill="#398378" data-fill-palette-color="accent">
                            <polygon
                              points="36.703,11.011 9.638,26.636 9.638,38.757 36.703,23.131 63.767,38.757 63.767,26.636"
                              data-fill-palette-color="accent"
                              fill="#398378"
                            />
                          </g>
                          <g fill="#398378" data-fill-palette-color="accent">
                            <polygon
                              points="63.298,89.092 36.233,73.467 36.233,61.348 63.298,76.973 90.362,61.348 90.362,73.467"
                              data-fill-palette-color="accent"
                              fill="#398378"
                            />
                          </g>
                          <g fill="#398378" data-fill-palette-color="accent">
                            <polygon
                              points="9.638,42.012 36.703,26.386 47.198,32.446 20.134,48.072 20.134,79.324 9.638,73.264"
                              data-fill-palette-color="accent"
                              fill="#398378"
                            />
                          </g>
                          <g fill="#398378" data-fill-palette-color="accent">
                            <polygon
                              points="77.083,18.872 50.018,3.247 39.522,9.307 66.586,24.932 66.586,56.184 77.083,50.124"
                              data-fill-palette-color="accent"
                              fill="#398378"
                            />
                          </g>
                          <g fill="#398378" data-fill-palette-color="accent">
                            <polygon
                              points="23.01,81.127 23.011,49.876 33.507,43.816 33.507,75.068 60.571,90.693 50.075,96.754"
                              data-fill-palette-color="accent"
                              fill="#398378"
                            />
                          </g>
                          <g fill="#398378" data-fill-palette-color="accent">
                            <polygon
                              points="90.362,58.092 90.362,26.84 79.866,20.78 79.866,52.031 52.802,67.658 63.298,73.719"
                              data-fill-palette-color="accent"
                              fill="#398378"
                            />
                          </g>
                        </svg>
                      </g>
                    </svg>
                  </g>
                </svg>
              </g>
            </svg>
          </g>
        </svg>
      </g>
    </svg>
  </g>
</svg>
